<svg version="1.1" viewBox="0.0 0.0 920.0603674540682 2068.942257217848" fill="none" stroke="none" stroke-linecap="square" stroke-miterlimit="10" xmlns:xlink="http://www.w3.org/1999/xlink" xmlns="http://www.w3.org/2000/svg"><clipPath id="p.0"><path d="m0 0l920.06036 0l0 2068.9421l-920.06036 0l0 -2068.9421z" clip-rule="nonzero"/></clipPath><g clip-path="url(#p.0)"><path fill="#000000" fill-opacity="0.0" d="m0 0l920.06036 0l0 2068.9421l-920.06036 0z" fill-rule="evenodd"/><path fill="#e69138" d="m233.18504 1823.1444l38.393692 0l0 163.21252l-38.393692 0z" fill-rule="evenodd"/><path stroke="#000000" stroke-width="1.0" stroke-linejoin="round" stroke-linecap="butt" d="m233.18504 1823.1444l38.393692 0l0 163.21252l-38.393692 0z" fill-rule="evenodd"/><path stroke="#cccccc" stroke-width="1.0" stroke-linecap="butt" d="m515.2362 6.4409447l0 22.997375" fill-rule="nonzero"/><path stroke="#cccccc" stroke-width="1.0" stroke-linecap="butt" d="m615.2362 6.4409447l0 22.997375" fill-rule="nonzero"/><path stroke="#cccccc" stroke-width="1.0" stroke-linecap="butt" d="m715.2362 6.4409447l0 22.997375" fill-rule="nonzero"/><path stroke="#cccccc" stroke-width="1.0" stroke-linecap="butt" d="m815.2362 6.4409447l0 22.997375" fill-rule="nonzero"/><path stroke="#cccccc" stroke-width="1.0" stroke-linecap="butt" d="m514.73755 6.9396324l300.99738 0" fill-rule="nonzero"/><path stroke="#cccccc" stroke-width="1.0" stroke-linecap="butt" d="m514.73755 28.939632l300.99738 0" fill-rule="nonzero"/><path fill="#000000" d="m523.20496 21.739632l-1.171875 0l0 -7.46875q-0.421875 0.40625 -1.109375 0.8125q-0.6875 0.40625 -1.234375 0.609375l0 -1.140625q0.984375 -0.453125 1.71875 -1.109375q0.734375 -0.671875 1.03125 -1.28125l0.765625 0l0 9.578125zm4.8031006 -5.171875q-0.734375 -0.265625 -1.09375 -0.765625q-0.34375 -0.5 -0.34375 -1.1875q0 -1.03125 0.75 -1.734375q0.75 -0.71875 1.984375 -0.71875q1.25 0 2.015625 0.734375q0.765625 0.71875 0.765625 1.75q0 0.671875 -0.359375 1.171875q-0.34375 0.484375 -1.046875 0.75q0.875 0.28125 1.328125 0.921875q0.46875 0.640625 0.46875 1.515625q0 1.234375 -0.875 2.0625q-0.859375 0.828125 -2.265625 0.828125q-1.421875 0 -2.28125 -0.828125q-0.859375 -0.84375 -0.859375 -2.09375q0 -0.921875 0.46875 -1.546875q0.46875 -0.640625 1.34375 -0.859375zm-0.234375 -1.984375q0 0.671875 0.4375 1.109375q0.4375 0.421875 1.125 0.421875q0.671875 0 1.109375 -0.421875q0.4375 -0.421875 0.4375 -1.046875q0 -0.640625 -0.453125 -1.078125q-0.4375 -0.4375 -1.109375 -0.4375q-0.671875 0 -1.109375 0.4375q-0.4375 0.421875 -0.4375 1.015625zm-0.375 4.40625q0 0.5 0.234375 0.96875q0.234375 0.46875 0.703125 0.734375q0.46875 0.25 1.015625 0.25q0.828125 0 1.375 -0.53125q0.546875 -0.546875 0.546875 -1.390625q0 -0.84375 -0.5625 -1.390625q-0.5625 -0.5625 -1.40625 -0.5625q-0.828125 0 -1.375 0.546875q-0.53125 0.546875 -0.53125 1.375zm6.5999756 -3.40625l-0.328125 -1.828125l0 -1.5625l1.34375 0l0 1.5625l-0.296875 1.828125l-0.71875 0zm2.15625 0l-0.328125 -1.828125l0 -1.5625l1.34375 0l0 1.5625l-0.3125 1.828125l-0.703125 0zm6.402954 6.15625l0 -9.546875l1.265625 0l0 3.921875l4.953125 0l0 -3.921875l1.265625 0l0 9.546875l-1.265625 0l0 -4.5l-4.953125 0l0 4.5l-1.265625 0z" fill-rule="nonzero"/><path fill="#000000" d="m624.93933 20.614632l0 1.125l-6.296875 0q-0.015625 -0.421875 0.140625 -0.8125q0.234375 -0.640625 0.765625 -1.265625q0.53125 -0.625 1.53125 -1.453125q1.5625 -1.265625 2.109375 -2.015625q0.546875 -0.75 0.546875 -1.40625q0 -0.703125 -0.5 -1.171875q-0.5 -0.484375 -1.296875 -0.484375q-0.859375 0 -1.375 0.515625q-0.5 0.5 -0.5 1.390625l-1.203125 -0.109375q0.125 -1.359375 0.921875 -2.0625q0.8125 -0.703125 2.171875 -0.703125q1.375 0 2.171875 0.765625q0.8125 0.75 0.8125 1.875q0 0.578125 -0.234375 1.140625q-0.234375 0.546875 -0.78125 1.15625q-0.546875 0.609375 -1.8125 1.671875q-1.046875 0.890625 -1.359375 1.21875q-0.296875 0.3125 -0.484375 0.625l4.671875 0zm5.0218506 1.125l0 -2.28125l-4.140625 0l0 -1.078125l4.34375 -6.1875l0.96875 0l0 6.1875l1.28125 0l0 1.078125l-1.28125 0l0 2.28125l-1.171875 0zm0 -3.359375l0 -4.296875l-2.984375 4.296875l2.984375 0zm4.0374756 -2.796875l-0.328125 -1.828125l0 -1.5625l1.34375 0l0 1.5625l-0.296875 1.828125l-0.71875 0zm2.15625 0l-0.328125 -1.828125l0 -1.5625l1.34375 0l0 1.5625l-0.3125 1.828125l-0.703125 0zm8.027954 6.15625l-2.53125 -9.546875l1.296875 0l1.453125 6.265625q0.234375 0.984375 0.40625 1.953125q0.359375 -1.53125 0.421875 -1.765625l1.828125 -6.453125l1.515625 0l1.375 4.828125q0.515625 1.796875 0.734375 3.390625q0.1875 -0.90625 0.484375 -2.078125l1.484375 -6.140625l1.28125 0l-2.625 9.546875l-1.21875 0l-2.0 -7.265625q-0.265625 -0.921875 -0.3125 -1.125q-0.140625 0.65625 -0.28125 1.125l-2.015625 7.265625l-1.296875 0z" fill-rule="nonzero"/><path fill="#000000" d="m722.5487 21.739632l0 -2.28125l-4.140625 0l0 -1.078125l4.34375 -6.1875l0.96875 0l0 6.1875l1.28125 0l0 1.078125l-1.28125 0l0 2.28125l-1.171875 0zm0 -3.359375l0 -4.296875l-2.984375 4.296875l2.984375 0zm9.803101 2.234375l0 1.125l-6.296875 0q-0.015625 -0.421875 0.140625 -0.8125q0.234375 -0.640625 0.765625 -1.265625q0.53125 -0.625 1.53125 -1.453125q1.5625 -1.265625 2.109375 -2.015625q0.546875 -0.75 0.546875 -1.40625q0 -0.703125 -0.5 -1.171875q-0.5 -0.484375 -1.296875 -0.484375q-0.859375 0 -1.375 0.515625q-0.5 0.5 -0.5 1.390625l-1.203125 -0.109375q0.125 -1.359375 0.921875 -2.0625q0.8125 -0.703125 2.171875 -0.703125q1.375 0 2.171875 0.765625q0.8125 0.75 0.8125 1.875q0 0.578125 -0.234375 1.140625q-0.234375 0.546875 -0.78125 1.15625q-0.546875 0.609375 -1.8125 1.671875q-1.046875 0.890625 -1.359375 1.21875q-0.296875 0.3125 -0.484375 0.625l4.671875 0zm1.6468506 -5.03125l-0.328125 -1.828125l0 -1.5625l1.34375 0l0 1.5625l-0.296875 1.828125l-0.71875 0zm2.15625 0l-0.328125 -1.828125l0 -1.5625l1.34375 0l0 1.5625l-0.3125 1.828125l-0.703125 0zm6.309204 6.15625l0 -9.546875l1.265625 0l0 8.421875l4.703125 0l0 1.125l-5.96875 0z" fill-rule="nonzero"/><path fill="#e69138" d="m824.7598 1799.1444l38.393738 0l0 19.212524l-38.393738 0z" fill-rule="evenodd"/><path stroke="#000000" stroke-width="1.0" stroke-linejoin="round" stroke-linecap="butt" d="m824.7598 1799.1444l38.393738 0l0 19.212524l-38.393738 0z" fill-rule="evenodd"/><path fill="#e69138" d="m499.21127 1799.1444l38.393707 0l0 19.212524l-38.393707 0z" fill-rule="evenodd"/><path stroke="#000000" stroke-width="1.0" stroke-linejoin="round" stroke-linecap="butt" d="m499.21127 1799.1444l38.393707 0l0 19.212524l-38.393707 0z" fill-rule="evenodd"/><path fill="#e69138" d="m824.7598 1971.9318l38.393738 0l0 19.212646l-38.393738 0z" fill-rule="evenodd"/><path stroke="#000000" stroke-width="1.0" stroke-linejoin="round" stroke-linecap="butt" d="m824.7598 1971.9318l38.393738 0l0 19.212646l-38.393738 0z" fill-rule="evenodd"/><path fill="#e69138" d="m499.21127 1971.9318l38.393707 0l0 19.212646l-38.393707 0z" fill-rule="evenodd"/><path stroke="#000000" stroke-width="1.0" stroke-linejoin="round" stroke-linecap="butt" d="m499.21127 1971.9318l38.393707 0l0 19.212646l-38.393707 0z" fill-rule="evenodd"/><path fill="#783f04" d="m499.21127 1551.9646l364.78738 0l0 153.60632l-364.78738 0z" fill-rule="evenodd"/><path stroke="#000000" stroke-width="1.0" stroke-linejoin="round" stroke-linecap="butt" d="m499.21127 1551.9646l364.78738 0l0 153.60632l-364.78738 0z" fill-rule="evenodd"/><path fill="#783f04" d="m537.605 1532.7677l288.0 0l0 192.0l-288.0 0z" fill-rule="evenodd"/><path stroke="#000000" stroke-width="1.0" stroke-linejoin="round" stroke-linecap="butt" d="m537.605 1532.7677l288.0 0l0 192.0l-288.0 0z" fill-rule="evenodd"/><path fill="#e69138" d="m824.7598 1532.7677l38.393738 0l0 19.212646l-38.393738 0z" fill-rule="evenodd"/><path stroke="#000000" stroke-width="1.0" stroke-linejoin="round" stroke-linecap="butt" d="m824.7598 1532.7677l38.393738 0l0 19.212646l-38.393738 0z" fill-rule="evenodd"/><path fill="#e69138" d="m499.21127 1532.7677l38.393707 0l0 19.212646l-38.393707 0z" fill-rule="evenodd"/><path stroke="#000000" stroke-width="1.0" stroke-linejoin="round" stroke-linecap="butt" d="m499.21127 1532.7677l38.393707 0l0 19.212646l-38.393707 0z" fill-rule="evenodd"/><path fill="#e69138" d="m824.7598 1705.5552l38.393738 0l0 19.212524l-38.393738 0z" fill-rule="evenodd"/><path stroke="#000000" stroke-width="1.0" stroke-linejoin="round" stroke-linecap="butt" d="m824.7598 1705.5552l38.393738 0l0 19.212524l-38.393738 0z" fill-rule="evenodd"/><path fill="#e69138" d="m499.21127 1705.5552l38.393707 0l0 19.212524l-38.393707 0z" fill-rule="evenodd"/><path stroke="#000000" stroke-width="1.0" stroke-linejoin="round" stroke-linecap="butt" d="m499.21127 1705.5552l38.393707 0l0 19.212524l-38.393707 0z" fill-rule="evenodd"/><path fill="#d0e0e3" d="m480.0 585.5381l403.2126 0l0 230.39368l-403.2126 0z" fill-rule="evenodd"/><path stroke="#000000" stroke-width="1.0" stroke-linejoin="round" stroke-linecap="butt" d="m480.0 585.5381l403.2126 0l0 230.39368l-403.2126 0z" fill-rule="evenodd"/><path fill="#783f04" d="m480.0 585.5381l403.2126 0l0 19.212585l-403.2126 0z" fill-rule="evenodd"/><path stroke="#000000" stroke-width="1.0" stroke-linejoin="round" stroke-linecap="butt" d="m480.0 585.5381l403.2126 0l0 19.212585l-403.2126 0z" fill-rule="evenodd"/><path fill="#783f04" d="m480.0 796.7192l403.2126 0l0 19.212585l-403.2126 0z" fill-rule="evenodd"/><path stroke="#000000" stroke-width="1.0" stroke-linejoin="round" stroke-linecap="butt" d="m480.0 796.7192l403.2126 0l0 19.212585l-403.2126 0z" fill-rule="evenodd"/><path fill="#783f04" d="m480.0 585.5381l19.212585 0l0 230.39368l-19.212585 0z" fill-rule="evenodd"/><path stroke="#000000" stroke-width="1.0" stroke-linejoin="round" stroke-linecap="butt" d="m480.0 585.5381l19.212585 0l0 230.39368l-19.212585 0z" fill-rule="evenodd"/><path fill="#783f04" d="m864.0 585.5381l19.212585 0l0 230.39368l-19.212585 0z" fill-rule="evenodd"/><path stroke="#000000" stroke-width="1.0" stroke-linejoin="round" stroke-linecap="butt" d="m864.0 585.5381l19.212585 0l0 230.39368l-19.212585 0z" fill-rule="evenodd"/><path fill="#000000" d="m499.2126 623.93176l364.7874 0l0 153.60632l-364.7874 0z" fill-rule="evenodd"/><path stroke="#000000" stroke-width="1.0" stroke-linejoin="round" stroke-linecap="butt" d="m499.2126 623.93176l364.7874 0l0 153.60632l-364.7874 0z" fill-rule="evenodd"/><path fill="#000000" d="m537.6063 604.7349l288.0 0l0 192.0l-288.0 0z" fill-rule="evenodd"/><path stroke="#000000" stroke-width="1.0" stroke-linejoin="round" stroke-linecap="butt" d="m537.6063 604.7349l288.0 0l0 192.0l-288.0 0z" fill-rule="evenodd"/><path fill="#e69138" d="m824.76117 604.7349l38.393677 0l0 19.212585l-38.393677 0z" fill-rule="evenodd"/><path stroke="#000000" stroke-width="1.0" stroke-linejoin="round" stroke-linecap="butt" d="m824.76117 604.7349l38.393677 0l0 19.212585l-38.393677 0z" fill-rule="evenodd"/><path fill="#e69138" d="m499.2126 604.7349l38.393738 0l0 19.212585l-38.393738 0z" fill-rule="evenodd"/><path stroke="#000000" stroke-width="1.0" stroke-linejoin="round" stroke-linecap="butt" d="m499.2126 604.7349l38.393738 0l0 19.212585l-38.393738 0z" fill-rule="evenodd"/><path fill="#e69138" d="m824.76117 777.52234l38.393677 0l0 19.212585l-38.393677 0z" fill-rule="evenodd"/><path stroke="#000000" stroke-width="1.0" stroke-linejoin="round" stroke-linecap="butt" d="m824.76117 777.52234l38.393677 0l0 19.212585l-38.393677 0z" fill-rule="evenodd"/><path fill="#e69138" d="m499.2126 777.52234l38.393738 0l0 19.212585l-38.393738 0z" fill-rule="evenodd"/><path stroke="#000000" stroke-width="1.0" stroke-linejoin="round" stroke-linecap="butt" d="m499.2126 777.52234l38.393738 0l0 19.212585l-38.393738 0z" fill-rule="evenodd"/><path fill="#b6d7a8" d="m271.57874 1867.8083l38.393707 0l0 62.3938l-38.393707 0z" fill-rule="evenodd"/><path stroke="#000000" stroke-width="1.0" stroke-linejoin="round" stroke-linecap="butt" d="m271.57874 1867.8083l38.393707 0l0 62.3938l-38.393707 0z" fill-rule="evenodd"/><path fill="#000000" d="m271.57874 1861.9895l38.393707 0l0 4.7873535l-38.393707 0z" fill-rule="evenodd"/><path stroke="#000000" stroke-width="1.0" stroke-linejoin="round" stroke-linecap="butt" d="m271.57874 1861.9895l38.393707 0l0 4.7873535l-38.393707 0z" fill-rule="evenodd"/><path fill="#d9d9d9" d="m271.57874 1823.1444l38.393707 0l0 38.393677l-38.393707 0z" fill-rule="evenodd"/><path stroke="#000000" stroke-width="1.0" stroke-linejoin="round" stroke-linecap="butt" d="m271.57874 1823.1444l38.393707 0l0 38.393677l-38.393707 0z" fill-rule="evenodd"/><path fill="#783f04" d="m271.57874 1928.7506l38.393707 0l0 4.7874756l-38.393707 0z" fill-rule="evenodd"/><path stroke="#000000" stroke-width="1.0" stroke-linejoin="round" stroke-linecap="butt" d="m271.57874 1928.7506l38.393707 0l0 4.7874756l-38.393707 0z" fill-rule="evenodd"/><path fill="#38761d" d="m271.57874 1933.5381l38.393707 0l0 52.818848l-38.393707 0z" fill-rule="evenodd"/><path stroke="#000000" stroke-width="1.0" stroke-linejoin="round" stroke-linecap="butt" d="m271.57874 1933.5381l38.393707 0l0 52.818848l-38.393707 0z" fill-rule="evenodd"/><path fill="#783f04" d="m233.18504 1818.3569l76.7874 0l0 4.7874756l-76.7874 0z" fill-rule="evenodd"/><path stroke="#000000" stroke-width="1.0" stroke-linejoin="round" stroke-linecap="butt" d="m233.18504 1818.3569l76.7874 0l0 4.7874756l-76.7874 0z" fill-rule="evenodd"/><path fill="#cccccc" d="m537.6063 623.9475l288.0 0l0 153.57477l-288.0 0z" fill-rule="evenodd"/><path stroke="#000000" stroke-width="1.0" stroke-linejoin="round" stroke-linecap="butt" d="m537.6063 623.9475l288.0 0l0 153.57477l-288.0 0z" fill-rule="evenodd"/><path fill="#d0e0e3" d="m480.0 329.6063l403.2126 0l0 230.3937l-403.2126 0z" fill-rule="evenodd"/><path stroke="#000000" stroke-width="1.0" stroke-linejoin="round" stroke-linecap="butt" d="m480.0 329.6063l403.2126 0l0 230.3937l-403.2126 0z" fill-rule="evenodd"/><path fill="#783f04" d="m480.0 329.6063l403.2126 0l0 19.212616l-403.2126 0z" fill-rule="evenodd"/><path stroke="#000000" stroke-width="1.0" stroke-linejoin="round" stroke-linecap="butt" d="m480.0 329.6063l403.2126 0l0 19.212616l-403.2126 0z" fill-rule="evenodd"/><path fill="#783f04" d="m480.0 540.7874l403.2126 0l0 19.212585l-403.2126 0z" fill-rule="evenodd"/><path stroke="#000000" stroke-width="1.0" stroke-linejoin="round" stroke-linecap="butt" d="m480.0 540.7874l403.2126 0l0 19.212585l-403.2126 0z" fill-rule="evenodd"/><path fill="#783f04" d="m480.0 329.6063l19.212585 0l0 230.3937l-19.212585 0z" fill-rule="evenodd"/><path stroke="#000000" stroke-width="1.0" stroke-linejoin="round" stroke-linecap="butt" d="m480.0 329.6063l19.212585 0l0 230.3937l-19.212585 0z" fill-rule="evenodd"/><path fill="#783f04" d="m864.0 329.6063l19.212585 0l0 230.3937l-19.212585 0z" fill-rule="evenodd"/><path stroke="#000000" stroke-width="1.0" stroke-linejoin="round" stroke-linecap="butt" d="m864.0 329.6063l19.212585 0l0 230.3937l-19.212585 0z" fill-rule="evenodd"/><path fill="#f9cb9c" d="m499.2126 368.0l364.7874 0l0 153.60632l-364.7874 0z" fill-rule="evenodd"/><path stroke="#000000" stroke-width="1.0" stroke-linejoin="round" stroke-linecap="butt" d="m499.2126 368.0l364.7874 0l0 153.60632l-364.7874 0z" fill-rule="evenodd"/><path fill="#f9cb9c" d="m537.6063 348.80316l288.0 0l0 192.0l-288.0 0z" fill-rule="evenodd"/><path stroke="#000000" stroke-width="1.0" stroke-linejoin="round" stroke-linecap="butt" d="m537.6063 348.80316l288.0 0l0 192.0l-288.0 0z" fill-rule="evenodd"/><path fill="#e69138" d="m824.76117 348.80316l38.393677 0l0 19.212585l-38.393677 0z" fill-rule="evenodd"/><path stroke="#000000" stroke-width="1.0" stroke-linejoin="round" stroke-linecap="butt" d="m824.76117 348.80316l38.393677 0l0 19.212585l-38.393677 0z" fill-rule="evenodd"/><path fill="#e69138" d="m499.2126 348.80316l38.393738 0l0 19.212585l-38.393738 0z" fill-rule="evenodd"/><path stroke="#000000" stroke-width="1.0" stroke-linejoin="round" stroke-linecap="butt" d="m499.2126 348.80316l38.393738 0l0 19.212585l-38.393738 0z" fill-rule="evenodd"/><path fill="#e69138" d="m824.76117 521.5906l38.393677 0l0 19.212585l-38.393677 0z" fill-rule="evenodd"/><path stroke="#000000" stroke-width="1.0" stroke-linejoin="round" stroke-linecap="butt" d="m824.76117 521.5906l38.393677 0l0 19.212585l-38.393677 0z" fill-rule="evenodd"/><path fill="#e69138" d="m499.2126 521.5906l38.393738 0l0 19.212585l-38.393738 0z" fill-rule="evenodd"/><path stroke="#000000" stroke-width="1.0" stroke-linejoin="round" stroke-linecap="butt" d="m499.2126 521.5906l38.393738 0l0 19.212585l-38.393738 0z" fill-rule="evenodd"/><path fill="#cccccc" d="m537.6063 368.01575l288.0 0l0 153.57477l-288.0 0z" fill-rule="evenodd"/><path stroke="#000000" stroke-width="1.0" stroke-linejoin="round" stroke-linecap="butt" d="m537.6063 368.01575l288.0 0l0 153.57477l-288.0 0z" fill-rule="evenodd"/><path fill="#85200c" d="m480.0 329.6063l57.606323 0l0 230.3937l-57.606323 0z" fill-rule="evenodd"/><path stroke="#000000" stroke-width="1.0" stroke-linejoin="round" stroke-linecap="butt" d="m480.0 329.6063l57.606323 0l0 230.3937l-57.606323 0z" fill-rule="evenodd"/><path fill="#85200c" d="m825.6063 329.6063l57.606262 0l0 230.3937l-57.606262 0z" fill-rule="evenodd"/><path stroke="#000000" stroke-width="1.0" stroke-linejoin="round" stroke-linecap="butt" d="m825.6063 329.6063l57.606262 0l0 230.3937l-57.606262 0z" fill-rule="evenodd"/><path fill="#85200c" d="m480.0 329.6063l403.2126 0l0 38.393707l-403.2126 0z" fill-rule="evenodd"/><path stroke="#000000" stroke-width="1.0" stroke-linejoin="round" stroke-linecap="butt" d="m480.0 329.6063l403.2126 0l0 38.393707l-403.2126 0z" fill-rule="evenodd"/><path fill="#85200c" d="m480.0 521.6063l403.2126 0l0 38.393677l-403.2126 0z" fill-rule="evenodd"/><path stroke="#000000" stroke-width="1.0" stroke-linejoin="round" stroke-linecap="butt" d="m480.0 521.6063l403.2126 0l0 38.393677l-403.2126 0z" fill-rule="evenodd"/><path fill="#38761d" d="m499.21127 1818.3556l38.393707 0l0 19.212646l-38.393707 0z" fill-rule="evenodd"/><path stroke="#000000" stroke-width="1.0" stroke-linejoin="round" stroke-linecap="butt" d="m499.21127 1818.3556l38.393707 0l0 19.212646l-38.393707 0z" fill-rule="evenodd"/><path fill="#38761d" d="m499.21127 1952.7179l38.393707 0l0 19.212524l-38.393707 0z" fill-rule="evenodd"/><path stroke="#000000" stroke-width="1.0" stroke-linejoin="round" stroke-linecap="butt" d="m499.21127 1952.7179l38.393707 0l0 19.212524l-38.393707 0z" fill-rule="evenodd"/><path fill="#38761d" d="m824.7598 1818.3556l38.393738 0l0 19.212646l-38.393738 0z" fill-rule="evenodd"/><path stroke="#000000" stroke-width="1.0" stroke-linejoin="round" stroke-linecap="butt" d="m824.7598 1818.3556l38.393738 0l0 19.212646l-38.393738 0z" fill-rule="evenodd"/><path fill="#38761d" d="m824.7598 1952.7179l38.393738 0l0 19.212524l-38.393738 0z" fill-rule="evenodd"/><path stroke="#000000" stroke-width="1.0" stroke-linejoin="round" stroke-linecap="butt" d="m824.7598 1952.7179l38.393738 0l0 19.212524l-38.393738 0z" fill-rule="evenodd"/><path fill="#d0e0e3" d="m480.0 54.472443l403.2126 0l0 230.3937l-403.2126 0z" fill-rule="evenodd"/><path stroke="#000000" stroke-width="1.0" stroke-linejoin="round" stroke-linecap="butt" d="m480.0 54.472443l403.2126 0l0 230.3937l-403.2126 0z" fill-rule="evenodd"/><path fill="#783f04" d="m480.0 54.472443l403.2126 0l0 19.212593l-403.2126 0z" fill-rule="evenodd"/><path stroke="#000000" stroke-width="1.0" stroke-linejoin="round" stroke-linecap="butt" d="m480.0 54.472443l403.2126 0l0 19.212593l-403.2126 0z" fill-rule="evenodd"/><path fill="#783f04" d="m480.0 265.65353l403.2126 0l0 19.212616l-403.2126 0z" fill-rule="evenodd"/><path stroke="#000000" stroke-width="1.0" stroke-linejoin="round" stroke-linecap="butt" d="m480.0 265.65353l403.2126 0l0 19.212616l-403.2126 0z" fill-rule="evenodd"/><path fill="#783f04" d="m480.0 54.472443l19.212585 0l0 230.3937l-19.212585 0z" fill-rule="evenodd"/><path stroke="#000000" stroke-width="1.0" stroke-linejoin="round" stroke-linecap="butt" d="m480.0 54.472443l19.212585 0l0 230.3937l-19.212585 0z" fill-rule="evenodd"/><path fill="#783f04" d="m864.0 54.472443l19.212585 0l0 230.3937l-19.212585 0z" fill-rule="evenodd"/><path stroke="#000000" stroke-width="1.0" stroke-linejoin="round" stroke-linecap="butt" d="m864.0 54.472443l19.212585 0l0 230.3937l-19.212585 0z" fill-rule="evenodd"/><path fill="#f9cb9c" d="m499.2126 92.86614l364.7874 0l0 153.6063l-364.7874 0z" fill-rule="evenodd"/><path stroke="#000000" stroke-width="1.0" stroke-linejoin="round" stroke-linecap="butt" d="m499.2126 92.86614l364.7874 0l0 153.6063l-364.7874 0z" fill-rule="evenodd"/><path fill="#f9cb9c" d="m537.6063 73.66929l288.0 0l0 192.0l-288.0 0z" fill-rule="evenodd"/><path stroke="#000000" stroke-width="1.0" stroke-linejoin="round" stroke-linecap="butt" d="m537.6063 73.66929l288.0 0l0 192.0l-288.0 0z" fill-rule="evenodd"/><path fill="#e69138" d="m824.76117 73.66929l38.393677 0l0 19.2126l-38.393677 0z" fill-rule="evenodd"/><path stroke="#000000" stroke-width="1.0" stroke-linejoin="round" stroke-linecap="butt" d="m824.76117 73.66929l38.393677 0l0 19.2126l-38.393677 0z" fill-rule="evenodd"/><path fill="#e69138" d="m499.2126 73.66929l38.393738 0l0 19.2126l-38.393738 0z" fill-rule="evenodd"/><path stroke="#000000" stroke-width="1.0" stroke-linejoin="round" stroke-linecap="butt" d="m499.2126 73.66929l38.393738 0l0 19.2126l-38.393738 0z" fill-rule="evenodd"/><path fill="#e69138" d="m824.76117 246.4567l38.393677 0l0 19.212585l-38.393677 0z" fill-rule="evenodd"/><path stroke="#000000" stroke-width="1.0" stroke-linejoin="round" stroke-linecap="butt" d="m824.76117 246.4567l38.393677 0l0 19.212585l-38.393677 0z" fill-rule="evenodd"/><path fill="#e69138" d="m499.2126 246.4567l38.393738 0l0 19.212585l-38.393738 0z" fill-rule="evenodd"/><path stroke="#000000" stroke-width="1.0" stroke-linejoin="round" stroke-linecap="butt" d="m499.2126 246.4567l38.393738 0l0 19.212585l-38.393738 0z" fill-rule="evenodd"/><path fill="#cccccc" d="m537.6063 73.6706l288.0 0l0 192.0l-288.0 0z" fill-rule="evenodd"/><path stroke="#000000" stroke-width="1.0" stroke-linejoin="round" stroke-linecap="butt" d="m537.6063 73.6706l288.0 0l0 192.0l-288.0 0z" fill-rule="evenodd"/><path fill="#85200c" d="m480.0 54.472443l57.606323 0l0 230.3937l-57.606323 0z" fill-rule="evenodd"/><path stroke="#000000" stroke-width="1.0" stroke-linejoin="round" stroke-linecap="butt" d="m480.0 54.472443l57.606323 0l0 230.3937l-57.606323 0z" fill-rule="evenodd"/><path fill="#85200c" d="m825.6063 54.472443l57.606262 0l0 230.3937l-57.606262 0z" fill-rule="evenodd"/><path stroke="#000000" stroke-width="1.0" stroke-linejoin="round" stroke-linecap="butt" d="m825.6063 54.472443l57.606262 0l0 230.3937l-57.606262 0z" fill-rule="evenodd"/><path fill="#85200c" d="m480.0 54.472443l403.2126 0l0 38.3937l-403.2126 0z" fill-rule="evenodd"/><path stroke="#000000" stroke-width="1.0" stroke-linejoin="round" stroke-linecap="butt" d="m480.0 54.472443l403.2126 0l0 38.3937l-403.2126 0z" fill-rule="evenodd"/><path fill="#85200c" d="m480.0 246.47244l403.2126 0l0 38.393707l-403.2126 0z" fill-rule="evenodd"/><path stroke="#000000" stroke-width="1.0" stroke-linejoin="round" stroke-linecap="butt" d="m480.0 246.47244l403.2126 0l0 38.393707l-403.2126 0z" fill-rule="evenodd"/><path fill="#cfe2f3" d="m480.0 54.472443l403.2126 0l0 19.212593l-403.2126 0z" fill-rule="evenodd"/><path stroke="#000000" stroke-width="1.0" stroke-linejoin="round" stroke-linecap="butt" d="m480.0 54.472443l403.2126 0l0 19.212593l-403.2126 0z" fill-rule="evenodd"/><path fill="#cfe2f3" d="m480.0 265.65878l403.2126 0l0 19.212616l-403.2126 0z" fill-rule="evenodd"/><path stroke="#000000" stroke-width="1.0" stroke-linejoin="round" stroke-linecap="butt" d="m480.0 265.65878l403.2126 0l0 19.212616l-403.2126 0z" fill-rule="evenodd"/><path fill="#cfe2f3" d="m480.0 54.472443l44.566956 0l0 230.3937l-44.566956 0z" fill-rule="evenodd"/><path stroke="#000000" stroke-width="1.0" stroke-linejoin="round" stroke-linecap="butt" d="m480.0 54.472443l44.566956 0l0 230.3937l-44.566956 0z" fill-rule="evenodd"/><path fill="#cfe2f3" d="m838.6457 54.472443l44.566895 0l0 230.3937l-44.566895 0z" fill-rule="evenodd"/><path stroke="#000000" stroke-width="1.0" stroke-linejoin="round" stroke-linecap="butt" d="m838.6457 54.472443l44.566895 0l0 230.3937l-44.566895 0z" fill-rule="evenodd"/><path fill="#000000" d="m480.0 899.07874l403.2126 0l0 153.57898l-403.2126 0z" fill-rule="evenodd"/><path stroke="#000000" stroke-width="1.0" stroke-linejoin="round" stroke-linecap="butt" d="m480.0 899.07874l403.2126 0l0 153.57898l-403.2126 0z" fill-rule="evenodd"/><path fill="#000000" d="m537.605 860.9796l288.0 0l0 228.95996l-288.0 0z" fill-rule="evenodd"/><path stroke="#000000" stroke-width="1.0" stroke-linejoin="round" stroke-linecap="butt" d="m537.605 860.9796l288.0 0l0 228.95996l-288.0 0z" fill-rule="evenodd"/><path fill="#e69138" d="m824.7598 879.8648l38.393738 0l0 19.212646l-38.393738 0z" fill-rule="evenodd"/><path stroke="#000000" stroke-width="1.0" stroke-linejoin="round" stroke-linecap="butt" d="m824.7598 879.8648l38.393738 0l0 19.212646l-38.393738 0z" fill-rule="evenodd"/><path fill="#e69138" d="m499.21127 879.8648l38.393707 0l0 19.212646l-38.393707 0z" fill-rule="evenodd"/><path stroke="#000000" stroke-width="1.0" stroke-linejoin="round" stroke-linecap="butt" d="m499.21127 879.8648l38.393707 0l0 19.212646l-38.393707 0z" fill-rule="evenodd"/><path fill="#e69138" d="m824.7598 1052.6522l38.393738 0l0 19.212646l-38.393738 0z" fill-rule="evenodd"/><path stroke="#000000" stroke-width="1.0" stroke-linejoin="round" stroke-linecap="butt" d="m824.7598 1052.6522l38.393738 0l0 19.212646l-38.393738 0z" fill-rule="evenodd"/><path fill="#e69138" d="m499.21127 1052.6522l38.393707 0l0 19.212646l-38.393707 0z" fill-rule="evenodd"/><path stroke="#000000" stroke-width="1.0" stroke-linejoin="round" stroke-linecap="butt" d="m499.21127 1052.6522l38.393707 0l0 19.212646l-38.393707 0z" fill-rule="evenodd"/><path fill="#783f04" d="m499.21127 1225.5144l364.78738 0l0 153.60632l-364.78738 0z" fill-rule="evenodd"/><path stroke="#000000" stroke-width="1.0" stroke-linejoin="round" stroke-linecap="butt" d="m499.21127 1225.5144l364.78738 0l0 153.60632l-364.78738 0z" fill-rule="evenodd"/><path fill="#783f04" d="m537.605 1206.3176l288.0 0l0 192.0l-288.0 0z" fill-rule="evenodd"/><path stroke="#000000" stroke-width="1.0" stroke-linejoin="round" stroke-linecap="butt" d="m537.605 1206.3176l288.0 0l0 192.0l-288.0 0z" fill-rule="evenodd"/><path fill="#e69138" d="m824.7598 1206.3176l38.393738 0l0 19.212524l-38.393738 0z" fill-rule="evenodd"/><path stroke="#000000" stroke-width="1.0" stroke-linejoin="round" stroke-linecap="butt" d="m824.7598 1206.3176l38.393738 0l0 19.212524l-38.393738 0z" fill-rule="evenodd"/><path fill="#e69138" d="m499.21127 1206.3176l38.393707 0l0 19.212524l-38.393707 0z" fill-rule="evenodd"/><path stroke="#000000" stroke-width="1.0" stroke-linejoin="round" stroke-linecap="butt" d="m499.21127 1206.3176l38.393707 0l0 19.212524l-38.393707 0z" fill-rule="evenodd"/><path fill="#e69138" d="m824.7598 1379.105l38.393738 0l0 19.212646l-38.393738 0z" fill-rule="evenodd"/><path stroke="#000000" stroke-width="1.0" stroke-linejoin="round" stroke-linecap="butt" d="m824.7598 1379.105l38.393738 0l0 19.212646l-38.393738 0z" fill-rule="evenodd"/><path fill="#e69138" d="m499.21127 1379.105l38.393707 0l0 19.212646l-38.393707 0z" fill-rule="evenodd"/><path stroke="#000000" stroke-width="1.0" stroke-linejoin="round" stroke-linecap="butt" d="m499.21127 1379.105l38.393707 0l0 19.212646l-38.393707 0z" fill-rule="evenodd"/><path fill="#b6d7a8" d="m499.21127 1225.4763l38.393707 0l0 19.212646l-38.393707 0z" fill-rule="evenodd"/><path stroke="#000000" stroke-width="1.0" stroke-linejoin="round" stroke-linecap="butt" d="m499.21127 1225.4763l38.393707 0l0 19.212646l-38.393707 0z" fill-rule="evenodd"/><path fill="#b6d7a8" d="m499.21127 1359.9436l38.393707 0l0 19.212524l-38.393707 0z" fill-rule="evenodd"/><path stroke="#000000" stroke-width="1.0" stroke-linejoin="round" stroke-linecap="butt" d="m499.21127 1359.9436l38.393707 0l0 19.212524l-38.393707 0z" fill-rule="evenodd"/><path fill="#b6d7a8" d="m824.7598 1219.2l38.393738 0l0 19.212646l-38.393738 0z" fill-rule="evenodd"/><path stroke="#000000" stroke-width="1.0" stroke-linejoin="round" stroke-linecap="butt" d="m824.7598 1219.2l38.393738 0l0 19.212646l-38.393738 0z" fill-rule="evenodd"/><path fill="#b6d7a8" d="m824.7598 1359.9436l38.393738 0l0 19.212524l-38.393738 0z" fill-rule="evenodd"/><path stroke="#000000" stroke-width="1.0" stroke-linejoin="round" stroke-linecap="butt" d="m824.7598 1359.9436l38.393738 0l0 19.212524l-38.393738 0z" fill-rule="evenodd"/></g></svg>